<?xml version="1.0" encoding="UTF-8" standalone="no"?>
<!-- Created with Inkscape (http://www.inkscape.org/) -->

<svg
   xmlns:dc="http://purl.org/dc/elements/1.1/"
   xmlns:cc="http://creativecommons.org/ns#"
   xmlns:rdf="http://www.w3.org/1999/02/22-rdf-syntax-ns#"
   xmlns:svg="http://www.w3.org/2000/svg"
   xmlns="http://www.w3.org/2000/svg"
   xmlns:sodipodi="http://sodipodi.sourceforge.net/DTD/sodipodi-0.dtd"
   xmlns:inkscape="http://www.inkscape.org/namespaces/inkscape"
   version="1.1"
   id="svg869"
   width="150"
   height="51.304298"
   viewBox="0 0 150 51.304298"
   sodipodi:docname="CEOE. Confederación Española de Organizaciones Empresariales.svg"
   inkscape:version="0.92.3 (2405546, 2018-03-11)">
  <metadata
     id="metadata875">
    <rdf:RDF>
      <cc:Work
         rdf:about="">
        <dc:format>image/svg+xml</dc:format>
        <dc:type
           rdf:resource="http://purl.org/dc/dcmitype/StillImage" />
        <dc:title></dc:title>
      </cc:Work>
    </rdf:RDF>
  </metadata>
  <defs
     id="defs873" />
  <sodipodi:namedview
     pagecolor="#ffffff"
     bordercolor="#666666"
     borderopacity="1"
     objecttolerance="10"
     gridtolerance="10"
     guidetolerance="10"
     inkscape:pageopacity="0"
     inkscape:pageshadow="2"
     inkscape:window-width="1299"
     inkscape:window-height="713"
     id="namedview871"
     showgrid="false"
     fit-margin-top="0"
     fit-margin-left="0"
     fit-margin-right="0"
     fit-margin-bottom="0"
     inkscape:zoom="1.0163793"
     inkscape:cx="9.5344022"
     inkscape:cy="-73.157213"
     inkscape:window-x="67"
     inkscape:window-y="27"
     inkscape:window-maximized="1"
     inkscape:current-layer="svg869" />
  <g
     id="g911"
     transform="matrix(0.25004523,0,0,0.25004523,-1.163739e-8,34.634617)"
     style="stroke-width:3.9992764">
    <path
       sodipodi:nodetypes="csscccscccssssscscsccccccccccsscscsscccccscccccscscccscscscccsccsccccccccscscssccscsccscsscccccscsccccscccccscsccccc"
       inkscape:connector-curvature="0"
       id="path892"
       d="m 15.727548,-42.457 c -4.90258,-0.95483 -8.4204,-3.39071 -10.56527,-7.31583 -1.6003,-2.92855 -1.77081,-6.65879 -1.77081,-38.74058 0,-35.22498 0.0182,-35.53691 2.34605,-40.26413 1.62264,-3.29511 3.65402,-5.53066 6.58786,-7.25 l 4.24181,-2.48587 54.912144,0.022 c 52.225888,0.0209 55.121698,0.11708 59.195908,1.96623 5.65655,2.56733 8.16364,7.84868 8.19427,17.26181 l 0.022,6.75 h -9 c -8.20542,0 -9,-0.16935 -9,-1.91821 0,-5.35826 2.68793,-5.08179 -49.406988,-5.08179 -36.150124,0 -48.492884,0.29987 -49.393014,1.2 -0.87446,0.87446 -1.2,8.57279 -1.2,28.37755 0,24.0605 0.18967,27.33497 1.6537,28.55 1.3502,1.12058 10.32736,1.37245 48.916664,1.37245 25.994636,0 47.590578,-0.32761 47.990988,-0.72801 0.4004,-0.40041 0.94516,-2.98791 1.21056,-5.75 l 0.48255,-5.02199 h 8.87277 8.87277 l -0.006,7.75 c -0.003,4.2625 -0.45022,9.35058 -0.99367,11.30685 -1.33844,4.81799 -5.57327,8.61391 -11.00075,9.8606 -5.10691,1.17307 -105.211832,1.2982 -111.163922,0.13896 z m 152.163922,0.0375 c -5.46168,-1.12917 -7.81212,-2.82142 -10.24673,-7.37734 -2.20699,-4.12996 -2.25327,-4.89438 -2.25327,-37.21657 0,-25.65626 0.31834,-34.09722 1.4305,-37.9305 1.75152,-6.03696 7.54001,-12.20046 12.26372,-13.05824 1.81818,-0.33016 27.91063,-0.46776 57.98323,-0.30577 53.43054,0.2878 54.74181,0.34159 57.5,2.35905 1.5524,1.13549 3.72255,3.83549 4.82255,6 1.79121,3.52463 2.03464,6.31039 2.33185,26.68546 l 0.33184,22.75 H 232.58253 173.1099 l 0.14079,8.95042 c 0.0919,5.84168 0.59221,9.4018 1.44051,10.25 1.02092,1.02081 10.99716,1.34861 46.50672,1.52816 24.86384,0.12572 46.55397,-0.1295 48.20027,-0.56716 2.6617,-0.70759 3.09194,-1.36986 3.88392,-5.97858 l 0.89065,-5.18284 h 8.99806 8.99806 l -0.50976,8.94045 c -0.59712,10.47267 -2.74998,15.55279 -7.86518,18.55955 -3.28051,1.92832 -5.35592,2.00569 -57.90247,2.15876 -29.975,0.0873 -56.075,-0.16686 -58,-0.56485 z m 104.86695,-59.62753 c 0.70383,-0.70382 0.39553,-15.23266 -0.34878,-16.43698 -0.42209,-0.68295 -16.94741,-1.0294 -49.10194,-1.0294 h -48.46573 l -0.97525,2.5651 c -1.02719,2.70171 -1.3337,12.33652 -0.46458,14.60311 0.41771,1.08933 9.46485,1.28121 49.69448,1.05398 27.05109,-0.15279 49.3989,-0.49291 49.6618,-0.75581 z m 50.63305,59.60491 c -4.61251,-1.11314 -7.14741,-2.76788 -9.68046,-6.31925 -2.30048,-3.22532 -2.322,-3.52991 -2.61929,-37.07499 -0.34742,-39.20203 0.0399,-41.95093 6.76655,-48.02809 2.19053,-1.97901 5.00662,-3.85218 6.25799,-4.1626 1.25136,-0.31042 27.25021,-0.43434 57.77521,-0.27538 l 55.5,0.28902 3.13626,2.23711 c 6.05802,4.3212 6.36435,6.49084 6.35816,45.03313 -0.003,19.78864 -0.43066,36.25995 -0.99367,38.28661 -1.33844,4.81799 -5.57327,8.61391 -11.00075,9.86061 -5.13689,1.17994 -106.66764,1.32002 -111.5,0.15383 z m 104.52149,-19.07129 c 1.03134,-1.63206 1.3749,-53.80346 0.37152,-56.41821 -0.54189,-1.41216 -5.7836,-1.58179 -48.87755,-1.58179 -39.68759,0 -48.47305,0.24398 -49.40932,1.37211 -0.80532,0.97035 -1.06077,9.38 -0.87244,28.72096 l 0.2663,27.34885 2.5,1.26275 c 1.92689,0.97327 13.11093,1.20917 48.7868,1.02904 39.88234,-0.20137 46.41795,-0.44126 47.23469,-1.73371 z m 48.05712,18.91332 c -5.3252,-1.04489 -9.71684,-4.9518 -11.07936,-9.85647 -0.55759,-2.00716 -0.99053,-17.80945 -0.99367,-36.26934 -0.005,-30.66022 0.12453,-33.06023 2.06832,-38.25547 1.41075,-3.77056 3.22423,-6.42057 5.6714,-8.28751 l 3.5975,-2.74453 54.5786,-0.29451 c 30.01823,-0.16199 56.05072,-0.0273 57.84998,0.29932 4.90277,0.88998 9.79172,5.70301 11.1097,10.93719 0.64912,2.57789 1.11892,13.28493 1.11892,25.50082 v 21.05718 h -59 -59 l 0.0153,8.75 c 0.008,4.8125 0.44201,9.425 0.96353,10.25 0.82119,1.29906 7.32709,1.5 48.5653,1.5 45.98156,0 47.66583,-0.0667 49.03647,-1.94113 0.78068,-1.06762 1.4194,-3.65512 1.4194,-5.75 v -3.80887 h 9 9 l -0.006,7.25 c -0.0108,13.97924 -3.59924,20.0399 -12.88091,21.75479 -6.6184,1.22282 -104.74871,1.14198 -111.0349,-0.0915 z m 105.90774,-65.66332 c -0.008,-3.7125 -0.285,-7.7625 -0.61664,-9 l -0.60297,-2.25 h -47.80158 c -26.29087,0 -48.51339,0.27315 -49.38337,0.60699 -1.26853,0.48678 -1.58179,2.26916 -1.58179,9 v 8.39301 h 50 50 l -0.0136,-6.75 z"
       style="fill:#1f3159;fill-opacity:1;stroke-width:3.9992764" />
    <path
       sodipodi:nodetypes="ssscsssccsssccsccccscsssssscccsssscsccscsscsssssccssscccccccssscscscscscscssssssssccsssscsssssccccccsccscscccccsccccccssccssccccscsssscsssccsscscscscsscsssccscscccssscccssscccccsssssssssccccssscccssscccsssccssscssssscssscsssccccscsscccccsccscsccccssscsssssscccssccssscccssscccssscccsccccsccsscccssssccscscsssssscscccsssscsssssscccsssssssssssccscsssscscsssscssscsccssscccscccccsscccsssscssscccsccssssscsscccscsssccccscscscsccscssscscssscccsscscccscscscsscccsssccccsscccccscccscccssscscscccssscccscccssscscsccsscccscccssscccccsccccssscsssccscsccscsssscssssssssssccsscsssscccsssccscccscscccsscccscccccccssssscscscscscccccccscccccsccccsccccsssssscscssssscsssscscscccsccscscscscssssscssscscsccscccccsscccccscccscccscscscscccssscccsccsccs"
       inkscape:connector-curvature="0"
       id="path892-3"
       d="M 4.666928,64.52461 C 3.292838,63.44375 1.613858,60.5667 0.92834795,58.11831 -1.749822,48.55284 2.945328,39.46493 10.542678,39.50883 c 6.88773,0.0398 10.68061,4.99537 10.4801,13.69274 -0.1362,5.90816 -2.10698,10.66645 -5.07592,12.25538 -3.08094,1.64887 -8.57585,1.19469 -11.27993,-0.93234 z m 11.47454,-3.2357 c 2.19952,-2.54376 2.36851,-11.70557 0.29005,-15.72488 -2.86364,-5.53766 -10.0462,-4.40412 -12.25641,1.93429 -1.24281,3.56408 -0.80442,10.05524 0.89786,13.29468 2.08228,3.96258 7.84761,4.22089 11.0685,0.49591 z m 10.75,-8.41517 V 39.2609 l 6.92655,0.39138 c 8.20856,0.46383 11.07345,2.37986 11.07345,7.40589 0,2.30665 -0.72302,3.79841 -2.46942,5.09501 -2.70658,2.00949 -2.81628,1.42415 2.17083,11.58341 1.21539,2.47589 1.17296,2.7467 -0.42573,2.71694 -1.18785,-0.0221 -2.66768,-2.00837 -4.47019,-6 -2.55826,-5.6652 -2.87431,-5.96694 -6.25,-5.96694 h -3.55549 v 6 c 0,4.66667 -0.33333,6 -1.5,6 -1.25987,0 -1.5,-2.17921 -1.5,-13.61285 z m 13.8,-2.58715 c 1.5425,-1.5425 1.5425,-5.0575 0,-6.6 -0.66,-0.66 -3.36,-1.2 -6,-1.2 h -4.8 v 4.5 4.5 h 4.8 c 2.64,0 5.34,-0.54 6,-1.2 z m 13.94998,15.11989 c -2.91217,-1.69618 -4.74998,-6.50778 -4.74998,-12.43597 0,-8.88773 3.46755,-13.42168 10.29546,-13.46168 4.04211,-0.0237 8.70454,3.42167 8.70454,6.43231 0,2.28045 -2.75935,1.87902 -3.51818,-0.51183 -0.77513,-2.44223 -4.41035,-4.03568 -7.41455,-3.25006 -4.60315,1.20375 -6.76117,12.13101 -3.60218,18.23983 2.49461,4.82404 8.95615,4.88597 11.51199,0.11033 1.64901,-3.08119 1.21934,-3.89716 -2.22708,-4.22946 -4.73329,-0.45638 -3.53662,-2.2623 1.73487,-2.61815 l 4.51513,-0.30479 v 6.55479 c 0,5.15981 -0.31923,6.55479 -1.5,6.55479 -0.825,0 -1.5,-0.54 -1.5,-1.2 0,-0.93333 -0.26667,-0.93333 -1.2,0 -1.45437,1.45437 -8.62528,1.53217 -11.05002,0.11989 z m 19.25385,-0.16989 c 0.002,-0.6875 1.70603,-6.65 3.78652,-13.25 3.40851,-10.81298 4.01294,-12 6.11034,-12 2.10637,0 2.69547,1.18833 6.19682,12.5 4.40435,14.22896 4.36247,14 2.56078,14 -0.73794,0 -1.88779,-1.82265 -2.55523,-4.05034 l -1.21351,-4.05035 -5.1617,0.30035 c -5.06278,0.29458 -5.17861,0.3722 -6.04411,4.05034 -0.81591,3.46735 -3.68885,5.41912 -3.67991,2.5 z m 13.58514,-11.37875 c -0.34376,-0.89582 -1.12225,-3.60347 -1.72999,-6.017 -0.60773,-2.41354 -1.43036,-4.58935 -1.82806,-4.83514 -0.57499,-0.35536 -4.03092,9.90358 -4.03092,11.96579 0,0.28331 1.84815,0.5151 4.10699,0.5151 3.38411,0 3.99698,-0.28668 3.48198,-1.62875 z m 11.41103,-0.9408 c 0,-13.47007 0.0164,-13.56721 2.232902,-13.25 1.63248,0.23362 3.71641,2.87404 7.75,9.81955 l 5.5171,9.5 0.5,-9.42036 c 0.33292,-6.27243 0.9177,-9.55836 1.75,-9.83333 0.95892,-0.31681 1.25,2.7501 1.25,13.17036 0,10.2091 -0.31051,13.57909 -1.25,13.56626 -0.6875,-0.009 -4.175,-5.0719 -7.75,-11.25 l -6.5,-11.23293 -0.28275,11.25 c -0.22855,9.09325 -0.56404,11.25 -1.75,11.25 -1.217582,0 -1.467252,-2.30901 -1.467252,-13.56955 z m 27.000002,0.0695 c 0,-11.33333 0.24074,-13.5 1.5,-13.5 1.25926,0 1.5,2.16667 1.5,13.5 0,11.33333 -0.24074,13.5 -1.5,13.5 -1.25926,0 -1.5,-2.16667 -1.5,-13.5 z m 8.70497,11.75 c 0.35321,-0.9625 3.26409,-6.09156 6.46862,-11.39792 3.20452,-5.30631 5.82641,-9.91881 5.82641,-10.24995 0,-0.33114 -2.475,-0.60208 -5.5,-0.60208 -4.22222,0 -5.5,-0.34848 -5.5,-1.5 0,-1.19894 1.49344,-1.5 7.44098,-1.5 4.09254,0 7.66938,0.36955 7.94852,0.82121 0.27915,0.45167 -2.38383,5.51417 -5.91772,11.25 -3.53389,5.73584 -6.43572,10.76629 -6.44852,11.17879 -0.0128,0.4125 2.67674,0.75 5.97674,0.75 4.66667,0 6,0.33333 6,1.5 0,1.21525 -1.60762,1.5 -8.46862,1.5 -7.64332,0 -8.40603,-0.17054 -7.82641,-1.75 z m 20.8154,-3 c 5.14668,-17.3065 6.99155,-21.7517 9.15539,-22.05982 1.96477,-0.27978 2.52838,0.83535 5.81227,11.5 2.00009,6.4954 3.86383,12.59732 4.14164,13.55982 0.3242,1.12325 -0.0419,1.75 -1.02214,1.75 -0.9183,0 -2.01062,-1.61336 -2.73954,-4.04629 l -1.2123,-4.04629 -5.07785,0.29629 c -4.95757,0.28927 -5.09978,0.38511 -6.00421,4.04629 -0.63529,2.57173 -1.48242,3.75 -2.6961,3.75 -1.64285,0 -1.66845,-0.34056 -0.35716,-4.75 z m 12.0046,-9.96857 c -0.38368,-2.04521 -1.26195,-5.08271 -1.95171,-6.75 l -1.2541,-3.03143 -1.65958,5.65391 c -2.23944,7.62943 -2.18553,7.84614 1.95171,7.84614 h 3.61129 l -0.69761,-3.71857 z m 15.22501,13.63846 c -6.32401,-3.6834 -6.2528,-21.43969 0.0996,-24.8394 2.22812,-1.19245 7.08931,-1.4249 9.6056,-0.45931 1.40527,0.53926 4.5448,5.25681 4.5448,6.82916 0,1.56581 -2.83382,0.22868 -3.95492,-1.86611 -2.57429,-4.8101 -9.03276,-3.92693 -10.92236,1.49359 -2.63513,7.55912 -0.43933,16.12393 4.44826,17.35064 3.01084,0.75572 7.42904,-1.59433 7.42904,-3.95146 0,-0.81232 0.675,-1.47695 1.5,-1.47695 2.10686,0 1.865,2.26626 -0.57258,5.36514 -1.65825,2.10813 -2.90769,2.62878 -6.25,2.60445 -2.29758,-0.0167 -4.96493,-0.48909 -5.92744,-1.0497 z m 20.25002,-12.50317 c 0,-10.42127 0.29099,-13.48676 1.25,-13.16846 0.89442,0.29685 1.33642,4.16081 1.55379,13.58333 0.26234,11.37159 0.0918,13.16846 -1.25,13.16846 -1.32879,0 -1.55379,-1.96692 -1.55379,-13.58333 z m 12.73634,11.59057 c -5.53922,-4.35715 -5.65951,-17.17498 -0.2123,-22.62219 2.57963,-2.57962 8.0438,-3.22189 11.53135,-1.35541 6.38168,3.41537 7.24568,17.7602 1.42057,23.58531 -3.05339,3.05339 -9.11913,3.24017 -12.73962,0.39229 z m 11.61329,-3.28371 c 2.41685,-2.86314 2.01601,-14.78647 -0.58452,-17.38699 -2.08779,-2.08779 -7.36157,-2.16865 -9.3863,-0.14392 -3.87669,3.87669 -3.43415,15.72465 0.71277,19.08262 2.77242,2.24497 6.59384,1.60448 9.25805,-1.55171 z m 10.65037,-8.22353 c 0,-13.34441 0.0259,-13.49957 2.25,-13.4626 1.7717,0.0294 3.41917,2.04491 7.75,9.48114 3.025,5.19405 5.8375,9.45223 6.25,9.4626 0.4125,0.0104 0.75,-4.29364 0.75,-9.56447 0,-7.2221 0.30799,-9.48073 1.25,-9.1669 0.89168,0.29705 1.34774,4.19085 1.59097,13.58333 0.43699,16.87452 -0.36946,17.03678 -9.52715,1.9169 l -6.81382,-11.25 -0.28275,11.25 c -0.22855,9.09325 -0.56404,11.25 -1.75,11.25 -1.21721,0 -1.46725,-2.3006 -1.46725,-13.5 z m 27.22097,0.25 0.27903,-13.25 h 7.41667 c 5.04444,0 7.54993,0.39981 7.83333,1.25 0.3052,0.91561 -1.34444,1.25 -6.16667,1.25 h -6.58333 v 4.5 4.5 h 4.5 c 2.475,0 4.5,0.45 4.5,1 0,0.55 -2.025,1 -4.5,1 h -4.5 v 5 5 h 6.5 c 5.11111,0 6.5,0.32051 6.5,1.5 0,1.20879 -1.55878,1.5 -8.02903,1.5 h -8.02902 z m 21.41539,10.61364 c -4.66012,-4.66013 -2.58372,-6.18002 2.54601,-1.86364 3.47909,2.92747 4.57722,3.05712 7.65202,0.90344 3.66066,-2.56402 2.45179,-5.51837 -3.43855,-8.40344 -6.90998,-3.38448 -8.39584,-4.78259 -8.39584,-7.89994 0,-7.07688 8.35081,-9.84015 13.66818,-4.52279 1.71818,1.71818 2.24394,2.91061 1.57727,3.57728 -0.66666,0.66666 -1.85909,0.1409 -3.57727,-1.57728 -1.4175,-1.4175 -3.07731,-2.57727 -3.68847,-2.57727 -2.58541,0 -4.97971,2.20761 -4.97971,4.59141 0,2.05128 0.88511,2.90557 4.75,4.58459 9.0843,3.94649 11.27752,7.97671 7.17742,13.18914 -2.94299,3.74141 -9.54889,3.74066 -13.29106,-0.001 z m 32.36364,-10.86364 v -13.5 h 8 c 6.44444,0 8,0.29167 8,1.5 0,1.17949 -1.38889,1.5 -6.5,1.5 h -6.5 v 4.5 4.5 h 4.5 c 2.475,0 4.5,0.45 4.5,1 0,0.55 -2.025,1 -4.5,1 h -4.5 v 5 5 h 6.5 c 5.11111,0 6.5,0.32051 6.5,1.5 0,1.20833 -1.55556,1.5 -8,1.5 h -8 z m 21.22097,0.25 c 0.26728,-12.69221 0.36948,-13.26289 2.4276,-13.55626 1.91256,-0.27262 2.56243,0.93574 5.916,11 l 3.76742,11.30626 3.66298,-11 c 3.03953,-9.12778 4.03248,-11.05439 5.834,-11.31955 2.13708,-0.31455 2.17103,-0.10734 2.17103,13.25 0,11.25599 -0.24998,13.56955 -1.46617,13.56955 -1.17889,0 -1.52178,-2.09081 -1.75,-10.67087 l -0.28383,-10.67087 -3.49735,10.67087 c -1.92354,5.86898 -4.02393,10.67087 -4.66754,10.67087 -0.6436,0 -2.61328,-4.3875 -4.37706,-9.75 -1.76378,-5.3625 -3.60089,-10.1775 -4.08246,-10.7 -0.50542,-0.54837 -0.87559,3.5736 -0.87559,9.75 0,8.93472 -0.25226,10.7 -1.52903,10.7 -1.30914,0 -1.48889,-1.90544 -1.25,-13.25 z m 31.58618,0.73183 c -0.16893,-6.885 -0.15715,-12.96 0.0262,-13.5 0.51239,-1.50923 9.91418,-1.16376 13.09515,0.48118 4.77298,2.46821 5.46796,7.23146 1.61697,11.08244 -1.93746,1.93745 -3.48575,2.45455 -7.34935,2.45455 h -4.89479 l 0.34139,6 c 0.26767,4.7043 0.0315,6 -1.09351,6 -1.15376,0 -1.49508,-2.45269 -1.74206,-12.51817 z m 13.31717,-4.85534 c 0.78947,-1.7327 0.76664,-2.96171 -0.0846,-4.55221 -0.9859,-1.84218 -1.88994,-2.13203 -5.85288,-1.87649 -4.6227,0.29807 -4.68746,0.35013 -4.72991,3.80221 -0.0596,4.84875 0.0954,5 5.1235,5 3.72607,0 4.64087,-0.39165 5.54386,-2.37351 z m 8.87568,3.87351 v -13.5 h 5.4349 c 5.75166,0 10.52702,1.34291 11.77944,3.31256 1.65793,2.60741 0.81129,7.57477 -1.60057,9.39076 l -2.38624,1.79668 2.88624,5.72148 c 3.34104,6.62307 3.37316,6.77852 1.40063,6.77852 -0.81709,0 -2.84857,-2.7 -4.5144,-6 -2.83013,-5.60646 -3.25741,-6 -6.5144,-6 h -3.4856 v 6 c 0,4.66667 -0.33333,6 -1.5,6 -1.25926,0 -1.5,-2.16667 -1.5,-13.5 z m 13.8,-2.7 c 0.66,-0.66 1.2,-2.145 1.2,-3.3 0,-3.2615 -1.98161,-4.5 -7.2,-4.5 h -4.8 v 4.5 4.5 h 4.8 c 2.64,0 5.34,-0.54 6,-1.2 z m 11.2,2.7 v -13.5 h 7.5 c 6,0 7.5,0.3 7.5,1.5 0,1.16667 -1.33333,1.5 -6,1.5 h -6 v 4.5 4.5 h 4.5 c 2.475,0 4.5,0.45 4.5,1 0,0.55 -2.025,1 -4.5,1 h -4.5 v 5 5 h 6.5 c 5.11111,0 6.5,0.32051 6.5,1.5 0,1.20833 -1.55556,1.5 -8,1.5 h -8 z m 21.45455,11.04545 c -1.35,-1.35 -2.45455,-2.925 -2.45455,-3.5 0,-1.72166 2.79056,-1.18189 4.1933,0.81109 2.64319,3.7554 8.66522,3.56049 10.15767,-0.32876 1.0659,-2.77771 -0.55394,-4.64276 -6.20167,-7.14046 -6.37158,-2.81781 -7.11278,-3.65736 -7.13399,-8.08062 -0.0301,-6.27024 8.72148,-8.66082 13.65287,-3.72943 1.97487,1.97487 2.30223,2.85138 1.40056,3.75 -0.90058,0.89753 -1.57472,0.67875 -2.87273,-0.93229 -3.45072,-4.28291 -9.19601,-3.64705 -9.19601,1.01776 0,2.78956 1.27465,3.93225 6.12908,5.49458 6.80941,2.19151 9.46116,7.8013 5.85486,12.38596 -2.94155,3.73959 -9.91206,3.86951 -13.52939,0.25217 z m 18.53121,-0.29545 c 0.46538,-1.5125 2.17251,-7.08104 3.79363,-12.37453 3.4728,-11.33984 3.75466,-11.87547 6.24914,-11.87547 1.57085,0 2.62703,2.27274 5.94098,12.7841 4.58695,14.54912 4.5267,14.2159 2.57063,14.2159 -0.83955,0 -1.97498,-1.71932 -2.67215,-4.04629 l -1.2123,-4.04629 -5.07785,0.29629 c -4.95757,0.28927 -5.09978,0.38511 -6.00421,4.04629 -0.63134,2.55575 -1.4849,3.75 -2.68019,3.75 -1.45173,0 -1.60808,-0.47369 -0.90768,-2.75 z m 13.01424,-10.10078 c 0,-1.61445 -0.85516,-4.83429 -2.69554,-10.14922 -0.55056,-1.58999 -2.45822,2.87061 -3.75742,8.78583 -0.69224,3.15174 -0.63643,3.21417 2.8735,3.21417 2.81659,0 3.57946,-0.39444 3.57946,-1.85078 z m 12,-0.76207 V 39.2609 l 6.92655,0.39138 c 4.96555,0.28058 7.51357,0.92263 9,2.26784 2.89497,2.61991 2.67927,7.10051 -0.4829,10.03111 l -2.55635,2.36914 3.07075,6.08311 c 2.74797,5.4437 2.87833,6.08311 1.24021,6.08311 -1.252,0 -2.73684,-1.89624 -4.69826,-6 -2.65294,-5.55059 -3.11612,-6 -6.18387,-6 h -3.31613 v 6 c 0,4.66667 -0.33333,6 -1.5,6 -1.25987,0 -1.5,-2.17921 -1.5,-13.61285 z m 13.06574,-2.42233 c 1.06384,-0.56935 1.93426,-1.88721 1.93426,-2.92858 0,-3.17794 -2.79374,-5.03624 -7.57143,-5.03624 h -4.42857 v 4.5 4.5 h 4.06574 c 2.23616,0 4.93616,-0.46583 6,-1.03518 z m 11.15523,2.78518 c 0.23138,-10.9871 0.53521,-13.25 1.77903,-13.25 1.24209,0 1.55391,2.27823 1.81351,13.25 0.30472,12.87853 0.25484,13.25 -1.77903,13.25 -2.03213,0 -2.08448,-0.38246 -1.81351,-13.25 z m 11.86667,0.58729 c 2.11077,-6.96448 4.25676,-13.08169 4.76885,-13.59378 2.66094,-2.66094 4.41295,-0.0481 8.21841,12.25649 4.4542,14.40219 4.38342,14 2.46364,14 -0.86188,0 -1.90891,-1.66172 -2.55213,-4.05045 l -1.09067,-4.05045 -5.19787,0.30045 c -5.09546,0.29453 -5.21612,0.37434 -6.12424,4.05045 -0.61709,2.49806 -1.49347,3.75 -2.62506,3.75 -1.48566,0 -1.21737,-1.58815 2.13907,-12.66271 z m 9.30586,-3.58729 c -2.44272,-8.55691 -2.54158,-8.60624 -4.50909,-2.25 -1.02148,3.3 -1.86335,6.3375 -1.87083,6.75 -0.007,0.4125 1.76216,0.75 3.93252,0.75 h 3.9461 z m 12.6065,2.75 c 0,-11.33333 0.24074,-13.5 1.5,-13.5 1.25,0 1.5,2 1.5,12 v 12 h 6 c 4.66667,0 6,0.33333 6,1.5 0,1.2 -1.5,1.5 -7.5,1.5 h -7.5 z m 19.22097,0.25 0.27903,-13.25 7.75,-0.29206 c 6.44244,-0.24279 7.75,-0.0319 7.75,1.25 0,1.23264 -1.31578,1.54206 -6.5575,1.54206 h -6.5575 l 0.3075,4.25 c 0.30601,4.22934 0.32816,4.25149 4.5575,4.5575 2.3375,0.16912 4.25,0.70575 4.25,1.1925 0,0.48675 -1.9125,1.02338 -4.25,1.1925 l -4.25,0.3075 v 4.5 4.5 l 6.75,0.29569 c 5.10354,0.22356 6.75,0.65043 6.75,1.75 0,1.15874 -1.73343,1.45431 -8.52903,1.45431 h -8.52902 z m 22.41389,11.17742 c -2.5814,-2.03053 -3.56927,-4.92742 -1.68031,-4.92742 0.525,0 2.07954,1.125 3.45454,2.5 4.29678,4.29678 10.05501,2.4497 9.4267,-3.02383 -0.28686,-2.49897 -1.06434,-3.18918 -5.33579,-4.73685 -8.19453,-2.96911 -10.37831,-7.08172 -6.42742,-12.10446 1.57879,-2.00711 2.96336,-2.63486 5.81144,-2.63486 3.93826,0 8.11598,2.85119 8.11598,5.53896 0,2.06513 -1.74074,1.814 -2.93844,-0.42393 -1.6123,-3.01262 -6.00555,-3.61549 -8.46009,-1.16095 -2.81228,2.81229 -1.48713,4.69688 5.99424,8.52488 5.43546,2.78115 5.92866,3.31429 6.21126,6.71407 0.22275,2.67982 -0.25738,4.25738 -1.75,5.75 -2.75791,2.75791 -8.90597,2.75019 -12.42211,-0.0156 z M 4.547768,21.35406 c -6.16449,-3.58334 -6.02509,-21.45899972 0.1933,-24.7869797 3.61831,-1.93646 9.01993,-1.30187 11.69586,1.37406 2.75015,2.75014998 3.23131,5.54545 0.95454,5.54545 -0.825,0 -1.5,-0.66463 -1.5,-1.47695 0,-2.33759002 -4.61123,-4.83744 -7.55861,-4.0977 -5.95611,1.49488998 -7.36423005,15.6637697 -2.01405,20.2658097 1.4763,1.26986 3.35455,2.30884 4.17388,2.30884 1.64373,0 5.84193,-3.82945 6.56007,-5.98387 0.25508,-0.76523 0.98098,-1.04624 1.64406,-0.63643 1.54587,0.9554 -1.00684,6.12258 -3.74996,7.59066 -2.47888,1.32665 -8.03437,1.27169 -10.39909,-0.10289 z m 25.46057,-0.49816 c -4.71571,-3.30302 -6.47619,-12.1802297 -3.7225,-18.7707397 4.08939,-9.78729 17.24559,-8.36512 19.20435,2.07598 1.87202,9.9787097 -2.4838,18.3254497 -9.5633,18.3254497 -1.97473,0 -4.63807,-0.73381 -5.91855,-1.63069 z m 11.74529,-4.96614 c 1.58935,-3.48824 1.41881,-10.9591597 -0.32725,-14.3356597 -1.65994,-3.20998 -5.6183,-4.62843 -8.54508,-3.06207 -4.43299,2.37246998 -6.44051,11.5691897 -3.70538,16.9748497 2.74828,5.43164 10.1817,5.68157 12.57771,0.42288 z m 12.13784,-6.9031697 c 0,-13.33808 0.027,-13.49981 2.25,-13.48398 1.78146,0.0127 3.39531,1.98762 7.75,9.48398 3.025,5.2073697 5.8375,9.4751597 6.25,9.4839797 0.4125,0.009 0.75,-4.25898 0.75,-9.4839797 0,-8.98439 1.21847,-12.48738 2.52182,-7.25 1.01423,4.07556 0.0619,24.0595197 -1.16591,24.4666797 -0.62925,0.20866 -3.95516,-4.37986 -7.3909,-10.19671 -3.43574,-5.8168497 -6.6334,-10.8150197 -7.10591,-11.10704972 -0.4725,-0.29202 -0.8591,4.44560002 -0.8591,10.52805972 0,9.16357 -0.25709,11.05902 -1.5,11.05902 -1.25926,0 -1.5,-2.16667 -1.5,-13.4999997 z M 83.326688,21.17837 c -0.2761,-0.71952 -0.37448,-6.68202 -0.21861,-13.2499997 l 0.28339,-11.94178 7.75,-0.29206 c 6.44244,-0.24279 7.75,-0.0319 7.75,1.25 0,1.23125 -1.31009,1.54206 -6.5,1.54206 h -6.5 v 3.94521 3.94521 l 4.67183,0.30479 c 6.67175,0.43527 7.0194,2.80479 0.4115,2.80479 h -5.08333 V 15.98659 c 0,5.98477 -1.27223,8.5601 -2.56478,5.19178 z M 105.89147,8.9865903 v -13.5 h 8.08333 c 6.02011,0 7.978,0.31906 7.67063,1.25 -0.25553,0.77398 -2.76258,1.36338 -6.58333,1.54772 l -6.17063,0.29771 v 3.95229 c 0,4.17143 0.54549,4.49399 6.75,3.99141 1.45619,-0.11796 2.25,0.3722 2.25,1.3893 0,1.19593 -1.07559,1.57157 -4.5,1.57157 h -4.5 v 4.9999997 5 h 6.5 c 5.11111,0 6.5,0.32051 6.5,1.5 0,1.20833 -1.55556,1.5 -8,1.5 h -8 z m 24,-0.13691 v -13.63691 l 6.62191,0.53154 c 9.12101,0.73215 11.64075,3.21713 12.13331,11.96594 C 149.23266,18.11817 144.81745,22.46439 133.64147,22.48101 l -3.75,0.006 z m 13.46652,7.8976597 c 2.49925,-2.49925 2.7018,-3.25701 2.3118,-8.6487297 -0.51302,-7.09236 -2.84317,-9.61202 -8.8891,-9.61202 h -3.88922 v 10.5 10.4999997 h 3.86364 c 2.87786,0 4.56253,-0.69889 6.60288,-2.73925 z m 14.53348,-7.7607497 v -13.5 h 7.5 c 6,0 7.5,0.3 7.5,1.5 0,1.16667 -1.33333,1.5 -6,1.5 h -6 v 3.9425 c 0,3.91092 0.0334,3.94497 4.17228,4.25 5.9664,0.43973 6.31307,2.8075 0.41105,2.8075 h -4.58333 v 4.9999997 5 h 6.5 c 5.11111,0 6.5,0.32051 6.5,1.5 0,1.20833 -1.55556,1.5 -8,1.5 h -8 z M 181.32669,21.17837 c -0.2761,-0.71952 -0.37448,-6.68202 -0.21861,-13.2499997 l 0.28339,-11.94178 5.56793,-0.29447 c 6.81121,-0.36023 10.59688,0.9647 12.08435,4.22932998 1.32985,2.91871002 -0.4986,8.56514002 -2.7736,8.56514002 -1.98943,0 -1.71139,1.9360197 1.12132,7.8079397 2.93291,6.07963 2.95122,6.19206 1.00818,6.19206 -0.85923,0 -2.62701,-2.54427 -4.16887,-6 -2.59825,-5.82342 -2.78979,-6 -6.50817,-6 h -3.83114 v 6 c 0,5.54155 -1.31535,7.94774 -2.56478,4.69178 z m 14.1128,-16.1247197 c 1.24005,-1.89255 1.34841,-2.89207 0.48787,-4.50000002 -0.91104,-1.70228998 -2.07062,-2.06705998 -6.57107,-2.06705998 h -5.46482 v 4.5 4.5 h 4.97695 c 4.16868,0 5.23583,-0.39512 6.57107,-2.43294 z M 205.8953,21.23659 c 0.002,-0.6875 1.70603,-6.65 3.78652,-13.2499997 3.46362,-10.98781 3.98692,-12 6.20398,-12 2.19961,0 2.71958,0.95727 5.67914,10.45538 4.493,14.4193797 4.80053,16.0446197 3.03595,16.0446197 -0.86179,0 -1.95374,-1.80098 -2.69314,-4.44186 l -1.24365,-4.44186 -4.8961,0.0379 -4.89611,0.0379 -1.10893,4.40394 c -0.64071,2.5445 -1.69213,4.40393 -2.4902,4.40393 -0.75971,0 -1.37957,-0.5625 -1.37746,-1.25 z M 219.48044,9.8578403 c -0.34376,-0.89582 -1.12225,-3.60347 -1.72999,-6.017 -0.60773,-2.41354 -1.43036,-4.58935002 -1.82806,-4.83514002 -0.57499,-0.35535998 -4.03092,9.90358002 -4.03092,11.96578972 0,0.28331 1.84814,0.5151 4.10699,0.5151 3.3841,0 3.99698,-0.28668 3.48198,-1.6287497 z M 235.19723,20.07317 c -2.67317,-2.29937 -2.80576,-2.82326 -2.80576,-11.0865797 0,-8.26332002 0.13259,-8.78721002 2.80576,-11.08658 1.88316,-1.61983 4.02052,-2.40838 6.5,-2.39811 4.21129,0.0175 5.14206,0.50841 7.5022,3.95719998 3.3593,4.90881002 1.00178,5.64108002 -3.30796,1.02749 -3.40204,-3.64188998 -5.3262,-3.76470998 -8.54545,-0.54545 -2.00889,2.00888002 -2.45455,3.44958002 -2.45455,7.93490002 0,6.9971297 1.31528,10.3997197 4.48603,11.6052397 3.32584,1.26448 7.37051,-0.57491 8.15729,-3.70968 0.32745,-1.30467 1.07603,-2.21189 1.66352,-2.01606 2.0388,0.6796 1.76196,2.49584 -0.85436,5.60516 -3.40339,4.04469 -8.9249,4.34393 -13.14672,0.71247 z M 258.89147,9.0699203 c 0,-11.522 0.23204,-13.58333 1.52903,-13.58333 1.30874,0 1.48882,1.89704 1.25,13.16812 -0.20004,9.4404297 -0.63289,13.2856497 -1.52903,13.5833297 -0.95903,0.31856 -1.25,-2.74667 -1.25,-13.1681197 z M 273.32856,19.42093 c -2.70637,-2.82484 -2.93709,-3.64451 -2.93709,-10.4343397 0,-6.78983 0.23072,-7.6095 2.93709,-10.43434 2.3505,-2.45339 3.74854,-3.05931 7,-3.03386 7.33278,0.0574 11.05076,5.54698 10.34694,15.2771897 -0.37618,5.20068 -0.85289,6.36334 -3.62437,8.83966 -4.50972,4.02944 -9.73498,3.94783 -13.72257,-0.21431 z m 13.29817,-4.04233 c 2.69961,-5.22765 1.11739,-13.6319997 -3.08474,-16.3853397 -5.81568,-3.81058 -11.30506,2.32959 -10.41004,11.6442097 0.25733,2.67816 1.25549,5.73968 2.21813,6.80338 3.44215,3.80353 8.74865,2.83309 11.27665,-2.06225 z m 12.26474,-6.3920097 c 0,-13.33957 0.0267,-13.49975 2.25,-13.47895 1.79079,0.0168 3.34191,1.95508 7.60003,9.49719 5.21461,9.2362697 7.45584,11.0120397 7.10897,5.6325897 -0.43699,-6.7771797 0.13835,-15.1508297 1.041,-15.1508297 0.61759,0 1,5.19443998 1,13.58333 0,10.0768397 -0.308,13.4806697 -1.19312,13.1856297 -0.65621,-0.21874 -4.25621,-5.53022 -8,-11.80329 L 301.89147,-0.95332972 V 10.76663 c 0,9.75108 -0.25199,11.71996 -1.5,11.71996 -1.25926,0 -1.5,-2.16667 -1.5,-13.4999997 z m 43,0.0404 v -13.54044 h 8.08333 c 6.02011,0 7.978,0.31906 7.67063,1.25 -0.25553,0.77398 -2.76258,1.36338 -6.58333,1.54772 l -6.17063,0.29775 v 3.89479 c 0,3.85492 0.0427,3.89793 4.17228,4.20228 5.9664,0.43973 6.31307,2.8075 0.41105,2.8075 h -4.58333 V 14.4409 19.39521 l 6.75,0.29569 c 9.51311,0.41673 8.45816,2.23555 -1.5,2.58613 l -8.25,0.29044 V 9.0270303 Z M 366.27215,19.95814 c -2.51263,-2.51263 -2.76289,-4.51085 -0.65304,-5.21414 0.60645,-0.20215 1.40433,0.583 1.77307,1.74479 1.49149,4.69928 10.51582,4.50346 10.48398,-0.22749 -0.0224,-3.32462 -0.88296,-4.17246 -7.09652,-6.9915297 -6.6882,-3.0344 -8.29703,-6.41114 -5.10265,-10.70984 3.20555,-4.31375 11.36364,-4.03488 13.41093,0.45842998 1.49918,3.29035002 0.10772,4.50849002 -2.01484,1.76388 -2.32573,-3.00732998 -6.45765,-3.87678998 -8.53785,-1.79658998 -3.27845,3.27845 -2.13457,4.9119 6.50549,9.28973 4.86118,2.4631097 5.37884,3.0490697 5.65772,6.4041997 0.41736,5.02117 -2.38466,7.80697 -7.85242,7.80697 -2.99394,0 -4.70266,-0.6572 -6.57387,-2.52841 z m 23.05454,1.22019 c -0.2761,-0.71952 -0.37448,-6.68202 -0.21861,-13.2499997 l 0.28339,-11.94174 h 6.71466 c 7.87751,0 9.92377,1.40016 10.07959,6.89698 0.14163,4.99648 -2.0321,6.83381 -8.74348,7.3903697 l -5.55077,0.46031 v 5.87617 c 0,5.43211 -1.32655,7.79473 -2.56478,4.56795 z M 402.51967,4.8317703 c 1.0145,-4.04209002 -0.6985,-5.80360002 -5.98063,-6.15001 l -4.64757,-0.30475 v 4.55479 4.55479 h 4.98095 c 4.55646,0 5.03773,-0.22625 5.64725,-2.65478 z m 6.3718,17.4734797 c 0,-0.18039 1.35688,-4.60089 3.0153,-9.82332 1.65841,-5.2224397 3.47575,-11.1828397 4.03854,-13.24533972 0.81818,-2.99847998 1.501,-3.74999998 3.40715,-3.74999998 1.81495,0 2.62581,0.77566 3.3975,3.25 0.90075,2.8882 5.29719,17.2232597 6.7754,22.0919197 0.41534,1.368 0.10715,1.75395 -1.19779,1.5 -1.06983,-0.20819 -2.19569,-1.90638 -2.8786,-4.34192 -1.11455,-3.97492 -1.15252,-4 -6.0575,-4 -4.90498,0 -4.94295,0.0251 -6.0575,4 -0.64934,2.31582 -1.8207,4.13613 -2.78204,4.32332 -0.91325,0.17783 -1.66046,0.17573 -1.66046,-0.005 z m 14,-11.91475 c 0,-1.5075397 -3.05675,-11.9039097 -3.5,-11.9039097 -0.44325,0 -3.5,10.39637 -3.5,11.9039097 0,0.60285 1.575,1.09609 3.5,1.09609 1.925,0 3.5,-0.49324 3.5,-1.09609 z m 14,-1.4039097 c 0,-13.34374 0.026,-13.49959 2.25,-13.46488 1.78012,0.0278 3.3986,2.03389 7.75,9.60608 l 5.5,9.5709597 0.28621,-9.6060797 c 0.22752,-7.6361 0.5864,-9.60608 1.75,-9.60608 1.21277,0 1.46379,2.3151 1.46379,13.5 0,7.6912297 -0.40163,13.4999997 -0.93341,13.4999997 -0.51337,0 -4.00087,-5.0219 -7.75,-11.15978 L 440.39147,0.16704028 440.10872,11.32681 c -0.22838,9.01395 -0.56488,11.15978 -1.75,11.15978 -1.21721,0 -1.46725,-2.3006 -1.46725,-13.4999997 z M 468.55043,20.43297 c -5.55209,-4.36728 -5.91893,-16.8402597 -0.65023,-22.1089597 4.82051,-4.8205 12.45947,-3.70028 15.55235,2.28068998 3.28536,6.35319002 1.27821,18.29197972 -3.50569,20.85224972 -3.14192,1.6815 -8.5779,1.19308 -11.39643,-1.02398 z m 11.81536,-3.89672 c 1.98557,-3.83967 1.97061,-12.4409797 -0.0269,-15.4896497 -5.16594,-7.88421 -14.88263,-0.20284002 -12.97246,10.2551697 1.11892,6.12592 3.01119,8.18482 7.52246,8.18482 3.36411,0 4.17799,-0.43842 5.47695,-2.95034 z m 13.52568,-7.6329897 c 0,-10.4213 0.29099,-13.48675 1.25,-13.16841 0.88203,0.29279 1.33281,3.83542998 1.53131,12.03437 l 0.28131,11.6194297 5.63969,0.29897 c 3.39356,0.1799 5.8039,0.79681 6.05202,1.54897 0.30558,0.92636 -1.55108,1.25 -7.171,1.25 h -7.58333 z m 20,12.1202997 c 0,-0.89633 1.67368,-7.00883 3.71929,-13.5833297 3.29059,-10.5758 3.97577,-11.95364 5.94443,-11.95364 1.96867,0 2.64214,1.35431 5.84299,11.75 1.98982,6.4624997 3.84515,12.5374997 4.12296,13.4999997 0.31964,1.10744 -0.0398,1.75 -0.97895,1.75 -0.85706,0 -2.08258,-1.79558 -2.90072,-4.25 -1.40576,-4.21727 -1.45383,-4.25 -6.24309,-4.25 -4.76066,0 -4.8414,0.0534 -5.92621,3.91985 -1.11305,3.96707 -3.5807,6.11524 -3.5807,3.11712 z M 526.41644,7.7680203 c -0.38368,-2.04521 -1.27085,-5.08271 -1.97148,-6.75 l -1.27387,-3.03143 -1.08441,4 c -2.73686,10.0953497 -2.81881,9.4999997 1.30767,9.4999997 h 3.7197 z m 28.47503,1.24096 v -13.75538 l 6.63188,0.42228 c 5.95059,0.37891 6.92651,0.75205 9.5,3.63227998 2.40976,2.69699002 2.86812,4.07603002 2.86812,8.62911002 0,10.0214497 -3.08817,13.3842597 -13.12714,14.2945597 l -5.87286,0.53254 z m 12.93857,8.7276097 c 4.3331,-3.51039 4.35151,-13.9771897 0.0307,-17.47593972 -1.2585,-1.0191 -3.84591,-1.77405998 -6.08005,-1.77405998 h -3.88922 v 10.5 10.4999997 h 3.88922 c 2.21444,0 4.81941,-0.75359 6.04935,-1.75 z m 15.06143,-8.7499997 v -13.5 h 8.08333 c 6.02011,0 7.978,0.31906 7.67063,1.25 -0.25553,0.77398 -2.76258,1.36338 -6.58333,1.54772 l -6.17063,0.29771 v 3.89479 c 0,3.85492 0.0427,3.89793 4.17228,4.20228 5.9664,0.43973 6.31307,2.8075 0.41105,2.8075 h -4.58333 v 4.9999997 5 h 6.5 c 5.11111,0 6.5,0.32051 6.5,1.5 0,1.20833 -1.55556,1.5 -8,1.5 h -8 z m -303.9684,-16.52749 c -0.0386,-1.86799 2.72755,-5.9725103 4.0251,-5.9725103 1.61878,0 1.0415,1.77685 -1.5251,4.6942403 -1.68008,1.9097 -2.47849,2.31793 -2.5,1.27827 z m 162.9684,-1.7153 c 0,-1.4041103 -0.0926,-1.3769003 5.64251,-1.6577103 5.75617,-0.28183 4.62972,2.0979303 -1.21301,2.5626203 -3.07729,0.24475 -4.4295,-0.0315 -4.4295,-0.90491 z"
       style="fill:#67686e;fill-opacity:1;stroke-width:3.9992764" />
  </g>
</svg>
